<svg id="SvgjsSvg1303" width="930.9090909090909" height="450.46874999999994" xmlns="http://www.w3.org/2000/svg" version="1.1" xmlns:xlink="http://www.w3.org/1999/xlink" xmlns:svgjs="http://svgjs.com/svgjs"><defs id="SvgjsDefs1304"><marker id="SvgjsMarker1363" markerWidth="14" markerHeight="10" refX="10" refY="5" viewBox="0 0 14 10" orient="auto" markerUnits="userSpaceOnUse" stroke-dasharray="0,0"><path id="SvgjsPath1364" d="M0,0 L14,5 L0,10 L0,0" fill="#323232" stroke="#323232" stroke-width="1"></path></marker><marker id="SvgjsMarker1373" markerWidth="14" markerHeight="10" refX="10" refY="5" viewBox="0 0 14 10" orient="auto" markerUnits="userSpaceOnUse" stroke-dasharray="0,0"><path id="SvgjsPath1374" d="M0,0 L14,5 L0,10 L0,0" fill="#323232" stroke="#323232" stroke-width="1"></path></marker><marker id="SvgjsMarker1413" markerWidth="14" markerHeight="10" refX="10" refY="5" viewBox="0 0 14 10" orient="auto" markerUnits="userSpaceOnUse" stroke-dasharray="0,0"><path id="SvgjsPath1414" d="M0,0 L14,5 L0,10 L0,0" fill="#323232" stroke="#323232" stroke-width="1"></path></marker><marker id="SvgjsMarker1423" markerWidth="14" markerHeight="10" refX="10" refY="5" viewBox="0 0 14 10" orient="auto" markerUnits="userSpaceOnUse" stroke-dasharray="0,0"><path id="SvgjsPath1424" d="M0,0 L14,5 L0,10 L0,0" fill="#323232" stroke="#323232" stroke-width="1"></path></marker></defs><g id="SvgjsG1305" transform="translate(25.011085115864546,25.004806866989895)"><path id="SvgjsPath1306" d="M 0 4Q 0 0 4 0L 876.9803921568628 0Q 880.9803921568628 0 880.9803921568628 4L 880.9803921568628 383.72246586028285Q 880.9803921568628 387.72246586028285 876.9803921568628 387.72246586028285L 4 387.72246586028285Q 0 387.72246586028285 0 383.72246586028285Z" stroke="rgba(255,255,255,1)" stroke-width="2" fill-opacity="1" fill="#e5e5e5"></path><g id="SvgjsG1307"><text id="SvgjsText1308" font-family="Arial" text-anchor="middle" font-size="13px" width="871px" fill="#323232" font-weight="400" align="middle" lineHeight="125%" anchor="middle" family="Arial" size="13px" weight="400" font-style="" opacity="1" y="18.06946184716306" transform="rotate(0)"></text></g></g><g id="SvgjsG1309" transform="translate(628.3432390300638,112.56117901706159)"><path id="SvgjsPath1310" d="M 0 4Q 0 0 4 0L 244.0868347338938 0Q 248.0868347338938 0 248.0868347338938 4L 248.0868347338938 75Q 248.0868347338938 79 244.0868347338938 79L 4 79Q 0 79 0 75Z" stroke="rgba(50,50,50,1)" stroke-width="2" fill-opacity="1" fill="#ccffff"></path><path id="SvgjsPath1311" d="M 0 30L 248.0868347338938 30" stroke="rgba(50,50,50,1)" stroke-width="2" fill="none"></path><path id="SvgjsPath1312" d="M 0 0L 248.0868347338938 0L 248.0868347338938 79L 0 79Z" stroke="none" fill="none"></path><g id="SvgjsG1313"><text id="SvgjsText1314" font-family="Georgia" text-anchor="middle" font-size="13px" width="229px" fill="#323232" font-weight="700" align="middle" lineHeight="125%" anchor="middle" family="Georgia" size="13px" weight="700" font-style="" opacity="1" y="4.375" transform="rotate(0)"><tspan id="SvgjsTspan1315" dy="16" x="124.5"><tspan id="SvgjsTspan1316" style="text-decoration:;">union</tspan></tspan></text></g><g id="SvgjsG1317"><text id="SvgjsText1318" font-family="Georgia" text-anchor="start" font-size="13px" width="229px" fill="#323232" font-weight="400" align="middle" lineHeight="125%" anchor="start" family="Georgia" size="13px" weight="400" font-style="" opacity="1" y="35.375" transform="rotate(0)"><tspan id="SvgjsTspan1319" dy="16" x="10"><tspan id="SvgjsTspan1320" style="text-decoration:;">+ pcReadFrom:int8_t*</tspan></tspan><tspan id="SvgjsTspan1321" dy="16" x="10"><tspan id="SvgjsTspan1322" style="text-decoration:;">+ uxRecursiveCallCount UBaseType_t</tspan></tspan></text></g></g><g id="SvgjsG1323" transform="translate(146.58111312706893,38.15921823274715)"><path id="SvgjsPath1324" d="M 0 4Q 0 0 4 0L 283.99859943977606 0Q 287.99859943977606 0 287.99859943977606 4L 287.99859943977606 251Q 287.99859943977606 255 283.99859943977606 255L 4 255Q 0 255 0 251Z" stroke="rgba(50,50,50,1)" stroke-width="2" fill-opacity="1" fill="#ffcccc"></path><path id="SvgjsPath1325" d="M 0 30L 287.99859943977606 30M 0 225L 287.99859943977606 225" stroke="rgba(50,50,50,1)" stroke-width="2" fill="none"></path><path id="SvgjsPath1326" d="M 0 0L 287.99859943977606 0L 287.99859943977606 255L 0 255Z" stroke="none" fill="none"></path><g id="SvgjsG1327"><text id="SvgjsText1328" font-family="Georgia" text-anchor="middle" font-size="13px" width="268px" fill="#323232" font-weight="700" align="middle" lineHeight="125%" anchor="middle" family="Georgia" size="13px" weight="700" font-style="" opacity="1" y="4.375" transform="rotate(0)"><tspan id="SvgjsTspan1329" dy="16" x="144"><tspan id="SvgjsTspan1330" style="text-decoration:;">QueueDefinition</tspan></tspan></text></g><g id="SvgjsG1331"><text id="SvgjsText1332" font-family="Georgia" text-anchor="start" font-size="13px" width="268px" fill="#323232" font-weight="400" align="middle" lineHeight="125%" anchor="start" family="Georgia" size="13px" weight="400" font-style="" opacity="1" y="27.375" transform="rotate(0)"><tspan id="SvgjsTspan1333" dy="16" x="10"><tspan id="SvgjsTspan1334" style="text-decoration:;">+ pcHead:type ------------------------------------</tspan></tspan><tspan id="SvgjsTspan1335" dy="16" x="10"><tspan id="SvgjsTspan1336" style="text-decoration:;">+ pcTail</tspan><tspan id="SvgjsTspan1337" style="text-decoration:;fill: rgb(50, 50, 50);">:int8_t*----------------------------------</tspan></tspan><tspan id="SvgjsTspan1338" dy="16" x="10"><tspan id="SvgjsTspan1339" style="text-decoration:;fill: rgb(50, 50, 50);">+ </tspan><tspan id="SvgjsTspan1340" style="text-decoration:;">pcWriteTo:int8_t*</tspan></tspan><tspan id="SvgjsTspan1341" dy="16" x="10"><tspan id="SvgjsTspan1342" style="text-decoration:;">+ u --------------------------------------------------</tspan></tspan><tspan id="SvgjsTspan1343" dy="16" x="10"><tspan id="SvgjsTspan1344" style="text-decoration:;">+ xTasksWaitingToSend:List_t</tspan></tspan><tspan id="SvgjsTspan1345" dy="16" x="10"><tspan id="SvgjsTspan1346" style="text-decoration:;">+ xTasksWaitingToReceive:List_t</tspan></tspan><tspan id="SvgjsTspan1347" dy="16" x="10"><tspan id="SvgjsTspan1348" style="text-decoration:;">+ uxMessagesWaiting:volatile UBaseType_t</tspan></tspan><tspan id="SvgjsTspan1349" dy="16" x="10"><tspan id="SvgjsTspan1350" style="text-decoration:;">+ uxLength:UBaseType_t = 5</tspan></tspan><tspan id="SvgjsTspan1351" dy="16" x="10"><tspan id="SvgjsTspan1352" style="text-decoration:;">+ uxItemSize:UBaseType_t = sizeof(int32_t)</tspan></tspan><tspan id="SvgjsTspan1353" dy="16" x="10"><tspan id="SvgjsTspan1354" style="text-decoration:;">+ cRxLock:volatile int8_t</tspan></tspan><tspan id="SvgjsTspan1355" dy="16" x="10"><tspan id="SvgjsTspan1356" style="text-decoration:;">+ cTxLock:volatile int8_t</tspan></tspan><tspan id="SvgjsTspan1357" dy="16" x="10"><tspan id="SvgjsTspan1358" style="text-decoration:;">+ ucStaticallyAllocated:uint8_t</tspan></tspan></text></g><g id="SvgjsG1359"><text id="SvgjsText1360" font-family="Georgia" text-anchor="start" font-size="13px" width="268px" fill="#323232" font-weight="400" align="middle" lineHeight="125%" anchor="start" family="Georgia" size="13px" weight="400" font-style="" opacity="1" y="229.375" transform="rotate(0)"></text></g></g><g id="SvgjsG1361"><path id="SvgjsPath1362" d="M434.9914772727273 126.303475935829L531.3424281794069 126.303475935829L531.3424281794069 125.89171122994668L625.0933790860865 125.89171122994668" stroke="#323232" stroke-width="2" fill="none" marker-end="url(#SvgjsMarker1363)"></path></g><g id="SvgjsG1365" transform="translate(25.011085115864546,33.42112299465185)"><path id="SvgjsPath1366" d="M 0 0L 100 0L 100 40L 0 40Z" stroke="none" fill="none"></path><g id="SvgjsG1367"><text id="SvgjsText1368" font-family="Georgia" text-anchor="middle" font-size="13px" width="100px" fill="#323232" font-weight="700" align="middle" lineHeight="125%" anchor="middle" family="Georgia" size="13px" weight="700" font-style="" opacity="1" y="9.375" transform="rotate(0)"><tspan id="SvgjsTspan1369" dy="16" x="50"><tspan id="SvgjsTspan1370" style="text-decoration:;fill: rgb(231, 79, 76);">pxNewQueue</tspan></tspan></text></g></g><g id="SvgjsG1371"><path id="SvgjsPath1372" d="M126.01108511586455 53.42112299465185L135.97186942959007 53.42112299465185L135.97186942959007 53.42112299465242L143.33265374331557 53.42112299465242" stroke="#323232" stroke-width="2" fill="none" marker-end="url(#SvgjsMarker1373)"></path></g><g id="SvgjsG1375" transform="translate(519.7195474481671,264.659218232747)"><path id="SvgjsPath1376" d="M 0 4Q 0 0 4 0L 37 0Q 41 0 41 4L 41 23Q 41 27 37 27L 4 27Q 0 27 0 23Z" stroke="rgba(33,41,48,1)" stroke-width="2" fill-opacity="1" fill="#ffffff"></path><g id="SvgjsG1377"><text id="SvgjsText1378" font-family="微软雅黑" text-anchor="middle" font-size="13px" width="21px" fill="#323232" font-weight="400" align="middle" lineHeight="125%" anchor="middle" family="微软雅黑" size="13px" weight="400" font-style="" opacity="1" y="2.875" transform="rotate(0)"></text></g></g><g id="SvgjsG1379" transform="translate(560.7195474481664,264.659218232747)"><path id="SvgjsPath1380" d="M 0 4Q 0 0 4 0L 37 0Q 41 0 41 4L 41 23Q 41 27 37 27L 4 27Q 0 27 0 23Z" stroke="rgba(33,41,48,1)" stroke-width="2" fill-opacity="1" fill="#ffffff"></path><g id="SvgjsG1381"><text id="SvgjsText1382" font-family="微软雅黑" text-anchor="middle" font-size="13px" width="21px" fill="#323232" font-weight="400" align="middle" lineHeight="125%" anchor="middle" family="微软雅黑" size="13px" weight="400" font-style="" opacity="1" y="2.875" transform="rotate(0)"></text></g></g><g id="SvgjsG1383" transform="translate(601.8248106060612,264.659218232747)"><path id="SvgjsPath1384" d="M 0 4Q 0 0 4 0L 37 0Q 41 0 41 4L 41 23Q 41 27 37 27L 4 27Q 0 27 0 23Z" stroke="rgba(33,41,48,1)" stroke-width="2" fill-opacity="1" fill="#94e0e1"></path><g id="SvgjsG1385"><text id="SvgjsText1386" font-family="微软雅黑" text-anchor="middle" font-size="13px" width="21px" fill="#323232" font-weight="400" align="middle" lineHeight="125%" anchor="middle" family="微软雅黑" size="13px" weight="400" font-style="" opacity="1" y="2.875" transform="rotate(0)"></text></g></g><g id="SvgjsG1387" transform="translate(683.930073763956,264.659218232747)"><path id="SvgjsPath1388" d="M 0 4Q 0 0 4 0L 37 0Q 41 0 41 4L 41 23Q 41 27 37 27L 4 27Q 0 27 0 23Z" stroke="rgba(33,41,48,1)" stroke-width="2" fill-opacity="1" fill="#ffffff"></path><g id="SvgjsG1389"><text id="SvgjsText1390" font-family="微软雅黑" text-anchor="middle" font-size="13px" width="21px" fill="#323232" font-weight="400" align="middle" lineHeight="125%" anchor="middle" family="微软雅黑" size="13px" weight="400" font-style="" opacity="1" y="2.875" transform="rotate(0)"></text></g></g><g id="SvgjsG1391" transform="translate(724.9300737639562,264.659218232747)"><path id="SvgjsPath1392" d="M 0 4Q 0 0 4 0L 37 0Q 41 0 41 4L 41 23Q 41 27 37 27L 4 27Q 0 27 0 23Z" stroke="rgba(33,41,48,1)" stroke-width="2" fill-opacity="1" fill="#ffffff"></path><g id="SvgjsG1393"><text id="SvgjsText1394" font-family="微软雅黑" text-anchor="middle" font-size="13px" width="21px" fill="#323232" font-weight="400" align="middle" lineHeight="125%" anchor="middle" family="微软雅黑" size="13px" weight="400" font-style="" opacity="1" y="2.875" transform="rotate(0)"></text></g></g><g id="SvgjsG1395" transform="translate(765.9300737639562,264.659218232747)"><path id="SvgjsPath1396" d="M 0 4Q 0 0 4 0L 37 0Q 41 0 41 4L 41 23Q 41 27 37 27L 4 27Q 0 27 0 23Z" stroke="rgba(33,41,48,1)" stroke-width="2" fill-opacity="1" fill="#ffffff"></path><g id="SvgjsG1397"><text id="SvgjsText1398" font-family="微软雅黑" text-anchor="middle" font-size="13px" width="21px" fill="#323232" font-weight="400" align="middle" lineHeight="125%" anchor="middle" family="微软雅黑" size="13px" weight="400" font-style="" opacity="1" y="2.875" transform="rotate(0)"></text></g></g><g id="SvgjsG1399" transform="translate(807.035336921851,264.659218232747)"><path id="SvgjsPath1400" d="M 0 4Q 0 0 4 0L 37 0Q 41 0 41 4L 41 23Q 41 27 37 27L 4 27Q 0 27 0 23Z" stroke="rgba(33,41,48,1)" stroke-width="2" fill-opacity="1" fill="#ffffff"></path><g id="SvgjsG1401"><text id="SvgjsText1402" font-family="微软雅黑" text-anchor="middle" font-size="13px" width="21px" fill="#323232" font-weight="400" align="middle" lineHeight="125%" anchor="middle" family="微软雅黑" size="13px" weight="400" font-style="" opacity="1" y="2.875" transform="rotate(0)"></text></g></g><g id="SvgjsG1403" transform="translate(847.9300737639564,264.659218232747)"><path id="SvgjsPath1404" d="M 0 4Q 0 0 4 0L 37 0Q 41 0 41 4L 41 23Q 41 27 37 27L 4 27Q 0 27 0 23Z" stroke="rgba(33,41,48,1)" stroke-width="2" fill-opacity="1" fill="#ffffff"></path><g id="SvgjsG1405"><text id="SvgjsText1406" font-family="微软雅黑" text-anchor="middle" font-size="13px" width="21px" fill="#323232" font-weight="400" align="middle" lineHeight="125%" anchor="middle" family="微软雅黑" size="13px" weight="400" font-style="" opacity="1" y="2.875" transform="rotate(0)"></text></g></g><g id="SvgjsG1407" transform="translate(642.8248106060612,264.659218232747)"><path id="SvgjsPath1408" d="M 0 4Q 0 0 4 0L 37 0Q 41 0 41 4L 41 23Q 41 27 37 27L 4 27Q 0 27 0 23Z" stroke="rgba(33,41,48,1)" stroke-width="2" fill-opacity="1" fill="#94e0e1"></path><g id="SvgjsG1409"><text id="SvgjsText1410" font-family="微软雅黑" text-anchor="middle" font-size="13px" width="21px" fill="#323232" font-weight="400" align="middle" lineHeight="125%" anchor="middle" family="微软雅黑" size="13px" weight="400" font-style="" opacity="1" y="2.875" transform="rotate(0)"></text></g></g><g id="SvgjsG1411"><path id="SvgjsPath1412" d="M434.9914772727273 75.56818181818193L540.2195474481671 75.56818181818193L540.2195474481671 261.05921823274696" stroke="#323232" stroke-width="2" fill="none" marker-end="url(#SvgjsMarker1413)"></path></g><g id="SvgjsG1415" transform="translate(432.65814393939564,195.15921823274698)"><path id="SvgjsPath1416" d="M 0 0L 123.16666666666521 0L 123.16666666666521 22.408963585434776L 0 22.408963585434776Z" stroke="none" fill="none"></path><g id="SvgjsG1417"><text id="SvgjsText1418" font-family="Georgia" text-anchor="middle" font-size="12px" width="124px" fill="#323232" font-weight="700" align="middle" lineHeight="125%" anchor="middle" family="Georgia" size="12px" weight="700" font-style="" opacity="1" y="1.204481792717388" transform="rotate(0)"><tspan id="SvgjsTspan1419" dy="15" x="62"><tspan id="SvgjsTspan1420" style="text-decoration:;">pucQueueStorage</tspan></tspan></text></g></g><g id="SvgjsG1421"><path id="SvgjsPath1422" d="M494.24147727272776 218.56818181818176L494.24147727272776 278.159218232747L516.1195474481672 278.159218232747" stroke="#323232" stroke-width="2" fill="none" marker-end="url(#SvgjsMarker1423)"></path></g><g id="SvgjsG1425" transform="translate(326.7600531241215,331.9807892056326)"><path id="SvgjsPath1426" d="M 0 4Q 0 0 4 0L 37 0Q 41 0 41 4L 41 23Q 41 27 37 27L 4 27Q 0 27 0 23Z" stroke="rgba(33,41,48,1)" stroke-width="2" fill-opacity="1" fill="#ffffff"></path><g id="SvgjsG1427"><text id="SvgjsText1428" font-family="微软雅黑" text-anchor="middle" font-size="13px" width="21px" fill="#323232" font-weight="400" align="middle" lineHeight="125%" anchor="middle" family="微软雅黑" size="13px" weight="400" font-style="" opacity="1" y="2.875" transform="rotate(0)"></text></g></g><g id="SvgjsG1429" transform="translate(367.76005312412,331.9807892056326)"><path id="SvgjsPath1430" d="M 0 4Q 0 0 4 0L 37 0Q 41 0 41 4L 41 23Q 41 27 37 27L 4 27Q 0 27 0 23Z" stroke="rgba(33,41,48,1)" stroke-width="2" fill-opacity="1" fill="#ffffff"></path><g id="SvgjsG1431"><text id="SvgjsText1432" font-family="微软雅黑" text-anchor="middle" font-size="13px" width="21px" fill="#323232" font-weight="400" align="middle" lineHeight="125%" anchor="middle" family="微软雅黑" size="13px" weight="400" font-style="" opacity="1" y="2.875" transform="rotate(0)"></text></g></g><g id="SvgjsG1433" transform="translate(408.86531628201516,331.9807892056326)"><path id="SvgjsPath1434" d="M 0 4Q 0 0 4 0L 37 0Q 41 0 41 4L 41 23Q 41 27 37 27L 4 27Q 0 27 0 23Z" stroke="rgba(33,41,48,1)" stroke-width="2" fill-opacity="1" fill="#94e0e1"></path><g id="SvgjsG1435"><text id="SvgjsText1436" font-family="微软雅黑" text-anchor="middle" font-size="13px" width="21px" fill="#323232" font-weight="400" align="middle" lineHeight="125%" anchor="middle" family="微软雅黑" size="13px" weight="400" font-style="" opacity="1" y="2.875" transform="rotate(0)"></text></g></g><g id="SvgjsG1437" transform="translate(490.9705794399102,331.9807892056326)"><path id="SvgjsPath1438" d="M 0 4Q 0 0 4 0L 37 0Q 41 0 41 4L 41 23Q 41 27 37 27L 4 27Q 0 27 0 23Z" stroke="rgba(33,41,48,1)" stroke-width="2" fill-opacity="1" fill="#ffffff"></path><g id="SvgjsG1439"><text id="SvgjsText1440" font-family="微软雅黑" text-anchor="middle" font-size="13px" width="21px" fill="#323232" font-weight="400" align="middle" lineHeight="125%" anchor="middle" family="微软雅黑" size="13px" weight="400" font-style="" opacity="1" y="2.875" transform="rotate(0)"></text></g></g><g id="SvgjsG1441" transform="translate(531.9705794399104,331.9807892056326)"><path id="SvgjsPath1442" d="M 0 4Q 0 0 4 0L 37 0Q 41 0 41 4L 41 23Q 41 27 37 27L 4 27Q 0 27 0 23Z" stroke="rgba(33,41,48,1)" stroke-width="2" fill-opacity="1" fill="#ffffff"></path><g id="SvgjsG1443"><text id="SvgjsText1444" font-family="微软雅黑" text-anchor="middle" font-size="13px" width="21px" fill="#323232" font-weight="400" align="middle" lineHeight="125%" anchor="middle" family="微软雅黑" size="13px" weight="400" font-style="" opacity="1" y="2.875" transform="rotate(0)"></text></g></g><g id="SvgjsG1445" transform="translate(572.9705794399104,331.9807892056326)"><path id="SvgjsPath1446" d="M 0 4Q 0 0 4 0L 37 0Q 41 0 41 4L 41 23Q 41 27 37 27L 4 27Q 0 27 0 23Z" stroke="rgba(33,41,48,1)" stroke-width="2" fill-opacity="1" fill="#ffffff"></path><g id="SvgjsG1447"><text id="SvgjsText1448" font-family="微软雅黑" text-anchor="middle" font-size="13px" width="21px" fill="#323232" font-weight="400" align="middle" lineHeight="125%" anchor="middle" family="微软雅黑" size="13px" weight="400" font-style="" opacity="1" y="2.875" transform="rotate(0)"></text></g></g><g id="SvgjsG1449" transform="translate(614.0758425978051,331.9807892056326)"><path id="SvgjsPath1450" d="M 0 4Q 0 0 4 0L 37 0Q 41 0 41 4L 41 23Q 41 27 37 27L 4 27Q 0 27 0 23Z" stroke="rgba(33,41,48,1)" stroke-width="2" fill-opacity="1" fill="#ffffff"></path><g id="SvgjsG1451"><text id="SvgjsText1452" font-family="微软雅黑" text-anchor="middle" font-size="13px" width="21px" fill="#323232" font-weight="400" align="middle" lineHeight="125%" anchor="middle" family="微软雅黑" size="13px" weight="400" font-style="" opacity="1" y="2.875" transform="rotate(0)"></text></g></g><g id="SvgjsG1453" transform="translate(654.9705794399106,331.9807892056326)"><path id="SvgjsPath1454" d="M 0 4Q 0 0 4 0L 37 0Q 41 0 41 4L 41 23Q 41 27 37 27L 4 27Q 0 27 0 23Z" stroke="rgba(33,41,48,1)" stroke-width="2" fill-opacity="1" fill="#ffffff"></path><g id="SvgjsG1455"><text id="SvgjsText1456" font-family="微软雅黑" text-anchor="middle" font-size="13px" width="21px" fill="#323232" font-weight="400" align="middle" lineHeight="125%" anchor="middle" family="微软雅黑" size="13px" weight="400" font-style="" opacity="1" y="2.875" transform="rotate(0)"></text></g></g><g id="SvgjsG1457" transform="translate(449.8653162820154,331.9807892056326)"><path id="SvgjsPath1458" d="M 0 4Q 0 0 4 0L 37 0Q 41 0 41 4L 41 23Q 41 27 37 27L 4 27Q 0 27 0 23Z" stroke="rgba(33,41,48,1)" stroke-width="2" fill-opacity="1" fill="#94e0e1"></path><g id="SvgjsG1459"><text id="SvgjsText1460" font-family="微软雅黑" text-anchor="middle" font-size="13px" width="21px" fill="#323232" font-weight="400" align="middle" lineHeight="125%" anchor="middle" family="微软雅黑" size="13px" weight="400" font-style="" opacity="1" y="2.875" transform="rotate(0)"></text></g></g><g id="SvgjsG1461" transform="translate(235.03198294868133,331.9807892056326)"><path id="SvgjsPath1462" d="M 0 4Q 0 0 4 0L 87.62280701754366 0Q 91.62280701754366 0 91.62280701754366 4L 91.62280701754366 23Q 91.62280701754366 27 87.62280701754366 27L 4 27Q 0 27 0 23Z" stroke="rgba(33,41,48,1)" stroke-width="2" fill-opacity="1" fill="#ffffff"></path><g id="SvgjsG1463"><text id="SvgjsText1464" font-family="Georgia" text-anchor="middle" font-size="13px" width="72px" fill="#323232" font-weight="700" align="middle" lineHeight="125%" anchor="middle" family="Georgia" size="13px" weight="700" font-style="" opacity="1" y="2.875" transform="rotate(0)"><tspan id="SvgjsTspan1465" dy="16" x="46"><tspan id="SvgjsTspan1466" style="text-decoration:;">Queue_t</tspan></tspan></text></g></g><g id="SvgjsG1467" transform="matrix(-1.8369701987210297e-16,-1,1,-1.8369701987210297e-16,348.84338554290446,425.4545436796402)"><path id="SvgjsPath1468" d="M 59.973756248911855 0Q 53.97638062402067 0 53.97638062402067 9L 53.97638062402067 152.09429824561397Q 53.97638062402067 161.09429824561397 37.973756248911855 161.09429824561397Q 53.97638062402067 161.09429824561397 53.97638062402067 170.09429824561397L 53.97638062402067 313.18859649122794Q 53.97638062402067 322.18859649122794 59.973756248911855 322.18859649122794" stroke="rgba(33,41,48,1)" stroke-width="2" fill="none"></path><path id="SvgjsPath1469" d="M 0 0L 59.973756248911855 0L 59.973756248911855 322.18859649122794L 0 322.18859649122794Z" stroke="none" fill="none"></path><g id="SvgjsG1470"><text id="SvgjsText1471" font-family="微软雅黑" text-anchor="end" font-size="13px" width="33px" fill="#323232" font-weight="400" align="middle" lineHeight="125%" anchor="end" family="微软雅黑" size="13px" weight="400" font-style="" opacity="1" y="150.46929824561397" transform="rotate(0)"></text></g></g><g id="SvgjsG1472" transform="translate(459.76005312412184,377.041713575383)"><path id="SvgjsPath1473" d="M 0 0L 100 0L 100 40L 0 40Z" stroke="none" fill="none"></path><g id="SvgjsG1474"><text id="SvgjsText1475" font-family="Georgia" text-anchor="middle" font-size="13px" width="100px" fill="#323232" font-weight="700" align="middle" lineHeight="125%" anchor="middle" family="Georgia" size="13px" weight="700" font-style="" opacity="1" y="9.375" transform="rotate(0)"><tspan id="SvgjsTspan1476" dy="16" x="50"><tspan id="SvgjsTspan1477" style="text-decoration:;nullfill: rgb(50, 50, 50);">buffer</tspan></tspan></text></g></g><g id="SvgjsG1478"><path id="SvgjsPath1479" d="M29.44602272727269 317.27272727272725L464.9005681818181 317.27272727272725L464.9005681818181 317.27272727272725L900.3551136363635 317.27272727272725" stroke-dasharray="10,5,3,5" stroke="#323232" stroke-width="2" fill="none"></path></g></svg>