<svg id="SvgjsSvg1001" width="834" height="292" xmlns="http://www.w3.org/2000/svg" version="1.1" xmlns:xlink="http://www.w3.org/1999/xlink" xmlns:svgjs="http://svgjs.com/svgjs"><defs id="SvgjsDefs1002"><marker id="SvgjsMarker1046" markerWidth="14" markerHeight="10" refX="4" refY="5" viewBox="0 0 14 10" orient="auto" markerUnits="userSpaceOnUse" stroke-dasharray="0,0"><path id="SvgjsPath1047" d="M14,0 L0,5 L14,10 L14,0" fill="#323232" stroke="#323232" stroke-width="1"></path></marker><marker id="SvgjsMarker1050" markerWidth="14" markerHeight="10" refX="4" refY="5" viewBox="0 0 14 10" orient="auto" markerUnits="userSpaceOnUse" stroke-dasharray="0,0"><path id="SvgjsPath1051" d="M14,0 L0,5 L14,10 L14,0" fill="#323232" stroke="#323232" stroke-width="1"></path></marker><marker id="SvgjsMarker1102" markerWidth="14" markerHeight="10" refX="10" refY="5" viewBox="0 0 14 10" orient="auto" markerUnits="userSpaceOnUse" stroke-dasharray="0,0"><path id="SvgjsPath1103" d="M0,0 L14,5 L0,10 L0,0" fill="#323232" stroke="#323232" stroke-width="1"></path></marker><marker id="SvgjsMarker1106" markerWidth="14" markerHeight="10" refX="10" refY="5" viewBox="0 0 14 10" orient="auto" markerUnits="userSpaceOnUse" stroke-dasharray="0,0"><path id="SvgjsPath1107" d="M0,0 L14,5 L0,10 L0,0" fill="#323232" stroke="#323232" stroke-width="1"></path></marker><marker id="SvgjsMarker1122" markerWidth="14" markerHeight="10" refX="10" refY="5" viewBox="0 0 14 10" orient="auto" markerUnits="userSpaceOnUse" stroke-dasharray="0,0"><path id="SvgjsPath1123" d="M0,0 L14,5 L0,10 L0,0" fill="#323232" stroke="#323232" stroke-width="1"></path></marker><marker id="SvgjsMarker1126" markerWidth="14" markerHeight="10" refX="10" refY="5" viewBox="0 0 14 10" orient="auto" markerUnits="userSpaceOnUse" stroke-dasharray="0,0"><path id="SvgjsPath1127" d="M0,0 L14,5 L0,10 L0,0" fill="#323232" stroke="#323232" stroke-width="1"></path></marker></defs><g id="SvgjsG1008" transform="translate(25,25)"><path id="SvgjsPath1009" d="M 0 4Q 0 0 4 0L 779.5789473684197 0Q 783.5789473684197 0 783.5789473684197 4L 783.5789473684197 238Q 783.5789473684197 242 779.5789473684197 242L 4 242Q 0 242 0 238Z" stroke="rgba(33,41,48,1)" stroke-width="2" fill-opacity="1" fill="#ffffff"></path><g id="SvgjsG1010"><text id="SvgjsText1011" font-family="微软雅黑" text-anchor="middle" font-size="13px" width="774px" fill="#323232" font-weight="400" align="middle" lineHeight="125%" anchor="middle" family="微软雅黑" size="13px" weight="400" font-style="" opacity="1" y="7.660714285714285" transform="rotate(0)"></text></g></g><g id="SvgjsG1012" transform="translate(240.7072368421044,121.11842105263042)"><path id="SvgjsPath1013" d="M 0 4Q 0 0 4 0L 37 0Q 41 0 41 4L 41 23Q 41 27 37 27L 4 27Q 0 27 0 23Z" stroke="rgba(33,41,48,1)" stroke-width="2" fill-opacity="1" fill="#ffffff"></path><g id="SvgjsG1014"><text id="SvgjsText1015" font-family="微软雅黑" text-anchor="middle" font-size="13px" width="21px" fill="#323232" font-weight="400" align="middle" lineHeight="125%" anchor="middle" family="微软雅黑" size="13px" weight="400" font-style="" opacity="1" y="2.875" transform="rotate(0)"></text></g></g><g id="SvgjsG1016" transform="translate(281.7072368421044,121.11842105263042)"><path id="SvgjsPath1017" d="M 0 4Q 0 0 4 0L 37 0Q 41 0 41 4L 41 23Q 41 27 37 27L 4 27Q 0 27 0 23Z" stroke="rgba(33,41,48,1)" stroke-width="2" fill-opacity="1" fill="#ffffff"></path><g id="SvgjsG1018"><text id="SvgjsText1019" font-family="微软雅黑" text-anchor="middle" font-size="13px" width="21px" fill="#323232" font-weight="400" align="middle" lineHeight="125%" anchor="middle" family="微软雅黑" size="13px" weight="400" font-style="" opacity="1" y="2.875" transform="rotate(0)"></text></g></g><g id="SvgjsG1020" transform="translate(322.8124999999992,121.11842105263042)"><path id="SvgjsPath1021" d="M 0 4Q 0 0 4 0L 37 0Q 41 0 41 4L 41 23Q 41 27 37 27L 4 27Q 0 27 0 23Z" stroke="rgba(33,41,48,1)" stroke-width="2" fill-opacity="1" fill="#94e0e1"></path><g id="SvgjsG1022"><text id="SvgjsText1023" font-family="微软雅黑" text-anchor="middle" font-size="13px" width="21px" fill="#323232" font-weight="400" align="middle" lineHeight="125%" anchor="middle" family="微软雅黑" size="13px" weight="400" font-style="" opacity="1" y="2.875" transform="rotate(0)"></text></g></g><g id="SvgjsG1024" transform="translate(404.917763157894,121.11842105263042)"><path id="SvgjsPath1025" d="M 0 4Q 0 0 4 0L 37 0Q 41 0 41 4L 41 23Q 41 27 37 27L 4 27Q 0 27 0 23Z" stroke="rgba(33,41,48,1)" stroke-width="2" fill-opacity="1" fill="#ffffff"></path><g id="SvgjsG1026"><text id="SvgjsText1027" font-family="微软雅黑" text-anchor="middle" font-size="13px" width="21px" fill="#323232" font-weight="400" align="middle" lineHeight="125%" anchor="middle" family="微软雅黑" size="13px" weight="400" font-style="" opacity="1" y="2.875" transform="rotate(0)"></text></g></g><g id="SvgjsG1028" transform="translate(445.9177631578941,121.11842105263042)"><path id="SvgjsPath1029" d="M 0 4Q 0 0 4 0L 37 0Q 41 0 41 4L 41 23Q 41 27 37 27L 4 27Q 0 27 0 23Z" stroke="rgba(33,41,48,1)" stroke-width="2" fill-opacity="1" fill="#ffffff"></path><g id="SvgjsG1030"><text id="SvgjsText1031" font-family="微软雅黑" text-anchor="middle" font-size="13px" width="21px" fill="#323232" font-weight="400" align="middle" lineHeight="125%" anchor="middle" family="微软雅黑" size="13px" weight="400" font-style="" opacity="1" y="2.875" transform="rotate(0)"></text></g></g><g id="SvgjsG1032" transform="translate(486.9177631578941,121.11842105263042)"><path id="SvgjsPath1033" d="M 0 4Q 0 0 4 0L 37 0Q 41 0 41 4L 41 23Q 41 27 37 27L 4 27Q 0 27 0 23Z" stroke="rgba(33,41,48,1)" stroke-width="2" fill-opacity="1" fill="#ffffff"></path><g id="SvgjsG1034"><text id="SvgjsText1035" font-family="微软雅黑" text-anchor="middle" font-size="13px" width="21px" fill="#323232" font-weight="400" align="middle" lineHeight="125%" anchor="middle" family="微软雅黑" size="13px" weight="400" font-style="" opacity="1" y="2.875" transform="rotate(0)"></text></g></g><g id="SvgjsG1036" transform="translate(528.0230263157889,121.11842105263042)"><path id="SvgjsPath1037" d="M 0 4Q 0 0 4 0L 37 0Q 41 0 41 4L 41 23Q 41 27 37 27L 4 27Q 0 27 0 23Z" stroke="rgba(33,41,48,1)" stroke-width="2" fill-opacity="1" fill="#ffffff"></path><g id="SvgjsG1038"><text id="SvgjsText1039" font-family="微软雅黑" text-anchor="middle" font-size="13px" width="21px" fill="#323232" font-weight="400" align="middle" lineHeight="125%" anchor="middle" family="微软雅黑" size="13px" weight="400" font-style="" opacity="1" y="2.875" transform="rotate(0)"></text></g></g><g id="SvgjsG1040" transform="translate(568.9177631578943,121.11842105263042)"><path id="SvgjsPath1041" d="M 0 4Q 0 0 4 0L 37 0Q 41 0 41 4L 41 23Q 41 27 37 27L 4 27Q 0 27 0 23Z" stroke="rgba(33,41,48,1)" stroke-width="2" fill-opacity="1" fill="#ffffff"></path><g id="SvgjsG1042"><text id="SvgjsText1043" font-family="微软雅黑" text-anchor="middle" font-size="13px" width="21px" fill="#323232" font-weight="400" align="middle" lineHeight="125%" anchor="middle" family="微软雅黑" size="13px" weight="400" font-style="" opacity="1" y="2.875" transform="rotate(0)"></text></g></g><g id="SvgjsG1044"><path id="SvgjsPath1045" d="M425.417763157894 117.5184210526304L425.417763157894 108.74999999999886L425.417763157894 108.74999999999886L425.417763157894 96.3815789473673" stroke="#323232" stroke-width="2" fill="none" marker-start="url(#SvgjsMarker1046)"></path></g><g id="SvgjsG1048"><path id="SvgjsPath1049" d="M343.3124999999992 151.71842105263045L343.3124999999992 162.77631578947262L343.3124999999992 162.77631578947262L343.3124999999992 177.4342105263147" stroke="#323232" stroke-width="2" fill="none" marker-start="url(#SvgjsMarker1050)"></path></g><g id="SvgjsG1052" transform="translate(378.312499999999,70.8815789473673)"><path id="SvgjsPath1053" d="M 0 0L 100 0L 100 40L 0 40Z" stroke="none" fill="none"></path><g id="SvgjsG1054"><text id="SvgjsText1055" font-family="Georgia" text-anchor="middle" font-size="13px" width="100px" fill="#323232" font-weight="400" align="middle" lineHeight="125%" anchor="middle" family="Georgia" size="13px" weight="400" font-style="" opacity="1" y="9.375" transform="rotate(0)"><tspan id="SvgjsTspan1056" dy="16" x="50"><tspan id="SvgjsTspan1057" style="text-decoration:;">writeID</tspan></tspan></text></g></g><g id="SvgjsG1058" transform="translate(293.3124999999991,168.48684210526312)"><path id="SvgjsPath1059" d="M 0 0L 100 0L 100 40L 0 40Z" stroke="none" fill="none"></path><g id="SvgjsG1060"><text id="SvgjsText1061" font-family="Georgia" text-anchor="middle" font-size="13px" width="100px" fill="#323232" font-weight="400" align="middle" lineHeight="125%" anchor="middle" family="Georgia" size="13px" weight="400" font-style="" opacity="1" y="9.375" transform="rotate(0)"><tspan id="SvgjsTspan1062" dy="16" x="50"><tspan id="SvgjsTspan1063" style="text-decoration:;">readID</tspan></tspan></text></g></g><g id="SvgjsG1064" transform="translate(363.8124999999991,121.11842105263042)"><path id="SvgjsPath1065" d="M 0 4Q 0 0 4 0L 37 0Q 41 0 41 4L 41 23Q 41 27 37 27L 4 27Q 0 27 0 23Z" stroke="rgba(33,41,48,1)" stroke-width="2" fill-opacity="1" fill="#94e0e1"></path><g id="SvgjsG1066"><text id="SvgjsText1067" font-family="微软雅黑" text-anchor="middle" font-size="13px" width="21px" fill="#323232" font-weight="400" align="middle" lineHeight="125%" anchor="middle" family="微软雅黑" size="13px" weight="400" font-style="" opacity="1" y="2.875" transform="rotate(0)"></text></g></g><g id="SvgjsG1068" transform="translate(524.0822368421044,166.73355263157987)"><path id="SvgjsPath1069" d="M 0 4Q 0 0 4 0L 16 0Q 20 0 20 4L 20 16.174342105263463Q 20 20.174342105263463 16 20.174342105263463L 4 20.174342105263463Q 0 20.174342105263463 0 16.174342105263463Z" stroke="rgba(33,41,48,1)" stroke-width="2" fill-opacity="1" fill="#ffffff"></path><g id="SvgjsG1070"><text id="SvgjsText1071" font-family="微软雅黑" text-anchor="middle" font-size="13px" width="10px" fill="#323232" font-weight="400" align="middle" lineHeight="125%" anchor="middle" family="微软雅黑" size="13px" weight="400" font-style="" opacity="1" y="-8.183975563909753" transform="rotate(0)"></text></g></g><g id="SvgjsG1072" transform="translate(524.0822368421044,193.14473684210623)"><path id="SvgjsPath1073" d="M 0 4Q 0 0 4 0L 16 0Q 20 0 20 4L 20 16Q 20 20 16 20L 4 20Q 0 20 0 16Z" stroke="rgba(33,41,48,1)" stroke-width="2" fill-opacity="1" fill="#94e0e1"></path><g id="SvgjsG1074"><text id="SvgjsText1075" font-family="微软雅黑" text-anchor="middle" font-size="13px" width="0px" fill="#323232" font-weight="400" align="middle" lineHeight="125%" anchor="middle" family="微软雅黑" size="13px" weight="400" font-style="" opacity="1" y="-0.625" transform="rotate(0)"></text></g></g><g id="SvgjsG1076" transform="translate(529.8914473684194,155.85526315789582)"><path id="SvgjsPath1077" d="M 0 0L 100 0L 100 40L 0 40Z" stroke="none" fill="none"></path><g id="SvgjsG1078"><text id="SvgjsText1079" font-family="Georgia" text-anchor="middle" font-size="13px" width="100px" fill="#323232" font-weight="400" align="middle" lineHeight="125%" anchor="middle" family="Georgia" size="13px" weight="400" font-style="" opacity="1" y="9.375" transform="rotate(0)"><tspan id="SvgjsTspan1080" dy="16" x="50"><tspan id="SvgjsTspan1081" style="text-decoration:;">writeable</tspan></tspan></text></g></g><g id="SvgjsG1082" transform="translate(529.3651315789463,181.1184210526327)"><path id="SvgjsPath1083" d="M 0 0L 100 0L 100 40L 0 40Z" stroke="none" fill="none"></path><g id="SvgjsG1084"><text id="SvgjsText1085" font-family="Georgia" text-anchor="middle" font-size="13px" width="100px" fill="#323232" font-weight="400" align="middle" lineHeight="125%" anchor="middle" family="Georgia" size="13px" weight="400" font-style="" opacity="1" y="9.375" transform="rotate(0)"><tspan id="SvgjsTspan1086" dy="16" x="50"><tspan id="SvgjsTspan1087" style="text-decoration:;">readable</tspan></tspan></text></g></g><g id="SvgjsG1088" transform="translate(121.31249999999932,92.74999999999886)"><path id="SvgjsPath1089" d="M 0 0L 41.230263157894456 0L 41.230263157894456 40L 0 40Z" stroke="none" fill="none"></path><g id="SvgjsG1090"><text id="SvgjsText1091" font-family="Georgia" text-anchor="middle" font-size="20px" width="42px" fill="#323232" font-weight="700" align="middle" lineHeight="125%" anchor="middle" family="Georgia" size="20px" weight="700" font-style="" opacity="1" y="2" transform="rotate(0)"><tspan id="SvgjsTspan1092" dy="25" x="21"><tspan id="SvgjsTspan1093" style="text-decoration:;">A</tspan></tspan></text></g></g><g id="SvgjsG1094" transform="translate(122.31249999999932,136.48684210526199)"><path id="SvgjsPath1095" d="M 0 0L 39.230263157894456 0L 39.230263157894456 40L 0 40Z" stroke="none" fill="none"></path><g id="SvgjsG1096"><text id="SvgjsText1097" font-family="Georgia" text-anchor="middle" font-size="20px" width="40px" fill="#323232" font-weight="700" align="middle" lineHeight="125%" anchor="middle" family="Georgia" size="20px" weight="700" font-style="" opacity="1" y="2" transform="rotate(0)"><tspan id="SvgjsTspan1098" dy="25" x="20"><tspan id="SvgjsTspan1099" style="text-decoration:;">B</tspan></tspan></text></g></g><g id="SvgjsG1100"><path id="SvgjsPath1101" d="M163.50578355866065 113.01942848347244L237.24036339934378 133.64847851212573" stroke="#323232" stroke-width="2" fill="none" marker-end="url(#SvgjsMarker1102)"></path></g><g id="SvgjsG1104"><path id="SvgjsPath1105" d="M162.50666224639184 156.2205742942284L237.23720012351146 135.57698517235144" stroke="#323232" stroke-width="2" fill="none" marker-end="url(#SvgjsMarker1106)"></path></g><g id="SvgjsG1108" transform="translate(669.496710526315,92.74999999999886)"><path id="SvgjsPath1109" d="M 0 0L 41.7697368421052 0L 41.7697368421052 40L 0 40Z" stroke="none" fill="none"></path><g id="SvgjsG1110"><text id="SvgjsText1111" font-family="Georgia" text-anchor="middle" font-size="20px" width="42px" fill="#323232" font-weight="700" align="middle" lineHeight="125%" anchor="middle" family="Georgia" size="20px" weight="700" font-style="" opacity="1" y="2" transform="rotate(0)"><tspan id="SvgjsTspan1112" dy="25" x="21"><tspan id="SvgjsTspan1113" style="text-decoration:;">C</tspan></tspan></text></g></g><g id="SvgjsG1114" transform="translate(668.4967105263152,136.48684210526199)"><path id="SvgjsPath1115" d="M 0 0L 43.76973684210543 0L 43.76973684210543 40L 0 40Z" stroke="none" fill="none"></path><g id="SvgjsG1116"><text id="SvgjsText1117" font-family="Georgia" text-anchor="middle" font-size="20px" width="44px" fill="#323232" font-weight="700" align="middle" lineHeight="125%" anchor="middle" family="Georgia" size="20px" weight="700" font-style="" opacity="1" y="2" transform="rotate(0)"><tspan id="SvgjsTspan1118" dy="25" x="22"><tspan id="SvgjsTspan1119" style="text-decoration:;">D</tspan></tspan></text></g></g><g id="SvgjsG1120"><path id="SvgjsPath1121" d="M610.8565232705341 134.27384965086208L666.117174120812 113.99045704636501" stroke="#323232" stroke-width="2" fill="none" marker-end="url(#SvgjsMarker1122)"></path></g><g id="SvgjsG1124"><path id="SvgjsPath1125" d="M610.8546101886104 134.96816044280342L665.1240612157375 155.22778030063932" stroke="#323232" stroke-width="2" fill="none" marker-end="url(#SvgjsMarker1126)"></path></g></svg>